<?xml version="1.0" standalone="no"?>
<!DOCTYPE svg PUBLIC "-//W3C//DTD SVG 20010904//EN"
 "http://www.w3.org/TR/2001/REC-SVG-20010904/DTD/svg10.dtd">
<svg version="1.0" xmlns="http://www.w3.org/2000/svg"
 width="1200.000000pt" height="600.000000pt" viewBox="0 0 1200.000000 600.000000"
 preserveAspectRatio="xMidYMid meet">

<g transform="translate(0.000000,600.000000) scale(0.100000,-0.100000)"
fill="#000000" stroke="none">
<path d="M1699 5315 c-181 -59 -326 -200 -399 -391 -31 -81 -40 -270 -16 -363
64 -251 270 -433 532 -471 95 -13 8093 -13 8188 0 99 15 194 51 273 103 77 51
113 87 171 173 85 125 119 279 97 439 -21 146 -68 245 -169 347 -73 75 -159
129 -262 164 l-73 24 -4133 0 -4133 -1 -76 -24z"/>
<path d="M1785 3615 c-225 -42 -395 -183 -482 -402 -25 -63 -27 -80 -28 -213
0 -130 3 -152 24 -210 79 -207 224 -343 440 -408 52 -16 325 -17 4101 -20
2717 -2 4077 1 4142 7 162 18 289 78 395 189 138 143 196 326 167 527 -20 138
-71 248 -164 348 -55 60 -173 134 -263 164 l-82 28 -4090 2 c-3326 1 -4103 -1
-4160 -12z"/>
<path d="M1800 1899 c-249 -41 -452 -224 -515 -464 -20 -77 -20 -243 0 -320
47 -183 203 -360 374 -425 138 -53 -110 -50 4251 -50 4360 0 4116 -3 4249 50
154 60 290 196 352 351 11 30 27 95 34 144 28 203 -37 402 -176 537 -101 99
-221 157 -363 177 -97 14 -8123 13 -8206 0z"/>
</g>
</svg>
