<svg width="198" height="63" viewBox="0 0 198 63" fill="none" xmlns="http://www.w3.org/2000/svg">
<path d="M61.51 40.67C62.1633 40.67 62.7 40.8733 63.12 41.28C63.54 41.68 63.75 42.1933 63.75 42.82C63.75 43.4533 63.5367 43.9767 63.11 44.39C62.6833 44.7967 62.1433 45 61.49 45H58.96V38H63.24V38.83H59.83V40.67H61.51ZM61.43 44.14C61.8433 44.14 62.1833 44.0167 62.45 43.77C62.7167 43.5233 62.85 43.21 62.85 42.83C62.85 42.4433 62.7167 42.13 62.45 41.89C62.19 41.65 61.8533 41.53 61.44 41.53H59.83V44.14H61.43ZM70.0428 42.32C70.0428 42.3933 70.0361 42.4967 70.0228 42.63H65.4128C65.4795 43.13 65.6861 43.5333 66.0328 43.84C66.3795 44.14 66.8061 44.29 67.3128 44.29C67.6861 44.29 68.0161 44.21 68.3028 44.05C68.5961 43.8833 68.8295 43.65 69.0028 43.35H69.8928C69.6661 43.91 69.3261 44.3467 68.8728 44.66C68.4195 44.9667 67.8995 45.12 67.3128 45.12C66.5328 45.12 65.8795 44.85 65.3528 44.31C64.8261 43.77 64.5628 43.1 64.5628 42.3C64.5628 41.4933 64.8261 40.8233 65.3528 40.29C65.8795 39.75 66.5328 39.48 67.3128 39.48C68.1195 39.48 68.7761 39.7533 69.2828 40.3C69.7895 40.8467 70.0428 41.52 70.0428 42.32ZM67.3128 40.29C66.9928 40.29 66.6995 40.3533 66.4328 40.48C66.1728 40.6067 65.9561 40.79 65.7828 41.03C65.6095 41.2633 65.4928 41.5333 65.4328 41.84H69.1828C69.1228 41.5267 69.0061 41.2533 68.8328 41.02C68.6595 40.78 68.4428 40.6 68.1828 40.48C67.9228 40.3533 67.6328 40.29 67.3128 40.29ZM74.1712 39.48C74.9778 39.48 75.6412 39.7467 76.1612 40.28C76.6878 40.8133 76.9512 41.4867 76.9512 42.3C76.9512 43.1067 76.6878 43.78 76.1612 44.32C75.6412 44.8533 74.9778 45.12 74.1712 45.12C73.3578 45.12 72.6878 44.84 72.1612 44.28V46.93H71.3112V39.6H71.8912L72.0612 40.43C72.3145 40.13 72.6212 39.8967 72.9812 39.73C73.3478 39.5633 73.7445 39.48 74.1712 39.48ZM74.1112 44.3C74.6845 44.3 75.1578 44.11 75.5312 43.73C75.9045 43.35 76.0912 42.8733 76.0912 42.3C76.0912 41.7267 75.9045 41.25 75.5312 40.87C75.1578 40.49 74.6845 40.3 74.1112 40.3C73.5378 40.3 73.0612 40.4933 72.6812 40.88C72.3078 41.26 72.1212 41.7333 72.1212 42.3C72.1212 42.6733 72.2045 43.0133 72.3712 43.32C72.5445 43.6267 72.7845 43.8667 73.0912 44.04C73.3978 44.2133 73.7378 44.3 74.1112 44.3ZM83.2948 42.32C83.2948 42.3933 83.2881 42.4967 83.2748 42.63H78.6648C78.7314 43.13 78.9381 43.5333 79.2848 43.84C79.6314 44.14 80.0581 44.29 80.5648 44.29C80.9381 44.29 81.2681 44.21 81.5548 44.05C81.8481 43.8833 82.0814 43.65 82.2548 43.35H83.1448C82.9181 43.91 82.5781 44.3467 82.1248 44.66C81.6714 44.9667 81.1514 45.12 80.5648 45.12C79.7848 45.12 79.1314 44.85 78.6048 44.31C78.0781 43.77 77.8148 43.1 77.8148 42.3C77.8148 41.4933 78.0781 40.8233 78.6048 40.29C79.1314 39.75 79.7848 39.48 80.5648 39.48C81.3714 39.48 82.0281 39.7533 82.5348 40.3C83.0414 40.8467 83.2948 41.52 83.2948 42.32ZM80.5648 40.29C80.2448 40.29 79.9514 40.3533 79.6848 40.48C79.4248 40.6067 79.2081 40.79 79.0348 41.03C78.8614 41.2633 78.7448 41.5333 78.6848 41.84H82.4348C82.3748 41.5267 82.2581 41.2533 82.0848 41.02C81.9114 40.78 81.6948 40.6 81.4348 40.48C81.1748 40.3533 80.8848 40.29 80.5648 40.29ZM90.4973 45L88.6773 42.58H87.9573V45H87.1373V42.58H86.4173L84.5973 45H83.5573L85.6873 42.15L83.7573 39.6H84.7473L86.4173 41.82H87.1373V39.6H87.9573V41.82H88.6773L90.3473 39.6H91.3373L89.4073 42.15L91.5373 45H90.4973ZM96.1445 39.6H96.9745V45H96.1445V42.61H93.2545V45H92.4245V39.6H93.2545V41.81H96.1445V39.6ZM103.294 39.6H103.974V45H103.264L103.174 44.18C102.921 44.48 102.611 44.7133 102.244 44.88C101.884 45.04 101.487 45.12 101.054 45.12C100.261 45.12 99.5973 44.8533 99.064 44.32C98.5307 43.78 98.264 43.1067 98.264 42.3C98.264 41.4933 98.5307 40.8233 99.064 40.29C99.5973 39.75 100.261 39.48 101.054 39.48C101.494 39.48 101.894 39.5633 102.254 39.73C102.621 39.8967 102.931 40.13 103.184 40.43L103.294 39.6ZM99.694 43.73C100.074 44.11 100.551 44.3 101.124 44.3C101.697 44.3 102.171 44.11 102.544 43.73C102.917 43.35 103.104 42.8733 103.104 42.3C103.104 41.7267 102.917 41.25 102.544 40.87C102.171 40.49 101.697 40.3 101.124 40.3C100.551 40.3 100.074 40.4933 99.694 40.88C99.3207 41.26 99.134 41.7333 99.134 42.3C99.134 42.8667 99.3207 43.3433 99.694 43.73ZM107.096 39.6H109.576V45H108.736V42.93H107.386L106.106 45H105.166L106.516 42.81C106.163 42.6967 105.883 42.5033 105.676 42.23C105.47 41.9567 105.366 41.6367 105.366 41.27C105.366 40.79 105.53 40.3933 105.856 40.08C106.183 39.76 106.596 39.6 107.096 39.6ZM107.166 42.11H108.736V40.42H107.166C106.886 40.42 106.66 40.5 106.486 40.66C106.313 40.8133 106.226 41.0167 106.226 41.27C106.226 41.5167 106.313 41.72 106.486 41.88C106.66 42.0333 106.886 42.11 107.166 42.11ZM117.839 39.6H118.749L116.179 45.22C115.979 45.66 115.782 46 115.589 46.24C115.396 46.48 115.179 46.6533 114.939 46.76C114.699 46.8733 114.406 46.93 114.059 46.93H113.549V46.16H113.989C114.349 46.16 114.619 46.0867 114.799 45.94C114.979 45.7933 115.179 45.4933 115.399 45.04L115.589 44.63L113.189 39.6H114.119L116.039 43.69L117.839 39.6ZM122.369 39.88C123.136 39.88 123.766 40.1233 124.259 40.61C124.753 41.09 124.999 41.7067 124.999 42.46C124.999 43.24 124.743 43.88 124.229 44.38C123.716 44.8733 123.056 45.12 122.249 45.12C121.403 45.12 120.726 44.8533 120.219 44.32C119.719 43.78 119.469 43.06 119.469 42.16C119.469 40.7733 119.719 39.7367 120.219 39.05C120.719 38.3633 121.586 37.87 122.819 37.57L124.419 37.19V38.03L122.839 38.41C122.139 38.57 121.593 38.8333 121.199 39.2C120.806 39.5667 120.553 40.0533 120.439 40.66C120.913 40.14 121.556 39.88 122.369 39.88ZM122.249 44.3C122.783 44.3 123.229 44.1267 123.589 43.78C123.949 43.4267 124.129 42.99 124.129 42.47C124.129 41.9433 123.949 41.5033 123.589 41.15C123.229 40.7967 122.783 40.62 122.249 40.62C121.709 40.62 121.259 40.7967 120.899 41.15C120.539 41.4967 120.359 41.9333 120.359 42.46C120.359 42.72 120.406 42.9633 120.499 43.19C120.599 43.4167 120.733 43.61 120.899 43.77C121.066 43.93 121.266 44.06 121.499 44.16C121.733 44.2533 121.983 44.3 122.249 44.3ZM128.731 45.12C128.198 45.12 127.711 45 127.271 44.76C126.831 44.5133 126.488 44.1767 126.241 43.75C125.995 43.3167 125.871 42.8333 125.871 42.3C125.871 41.4867 126.141 40.8133 126.681 40.28C127.228 39.7467 127.911 39.48 128.731 39.48C129.271 39.48 129.758 39.6033 130.191 39.85C130.631 40.09 130.975 40.4267 131.221 40.86C131.475 41.2867 131.601 41.7667 131.601 42.3C131.601 43.1067 131.328 43.78 130.781 44.32C130.235 44.8533 129.551 45.12 128.731 45.12ZM127.301 43.74C127.681 44.1133 128.158 44.3 128.731 44.3C129.311 44.3 129.788 44.1133 130.161 43.74C130.541 43.36 130.731 42.88 130.731 42.3C130.731 41.72 130.541 41.2433 130.161 40.87C129.788 40.49 129.311 40.3 128.731 40.3C128.158 40.3 127.681 40.49 127.301 40.87C126.928 41.2433 126.741 41.72 126.741 42.3C126.741 42.88 126.928 43.36 127.301 43.74ZM135.753 39.48C136.56 39.48 137.223 39.7467 137.743 40.28C138.27 40.8133 138.533 41.4867 138.533 42.3C138.533 43.1067 138.27 43.78 137.743 44.32C137.223 44.8533 136.56 45.12 135.753 45.12C134.94 45.12 134.27 44.84 133.743 44.28V46.93H132.893V39.6H133.473L133.643 40.43C133.897 40.13 134.203 39.8967 134.563 39.73C134.93 39.5633 135.327 39.48 135.753 39.48ZM135.693 44.3C136.267 44.3 136.74 44.11 137.113 43.73C137.487 43.35 137.673 42.8733 137.673 42.3C137.673 41.7267 137.487 41.25 137.113 40.87C136.74 40.49 136.267 40.3 135.693 40.3C135.12 40.3 134.643 40.4933 134.263 40.88C133.89 41.26 133.703 41.7333 133.703 42.3C133.703 42.6733 133.787 43.0133 133.953 43.32C134.127 43.6267 134.367 43.8667 134.673 44.04C134.98 44.2133 135.32 44.3 135.693 44.3ZM143.297 45L141.447 42.58H140.677V45H139.827V39.6H140.677V41.79H141.457L143.127 39.6H144.157L142.187 42.19L144.357 45H143.297ZM149.681 39.6H150.361V45H149.651L149.561 44.18C149.307 44.48 148.997 44.7133 148.631 44.88C148.271 45.04 147.874 45.12 147.441 45.12C146.647 45.12 145.984 44.8533 145.451 44.32C144.917 43.78 144.651 43.1067 144.651 42.3C144.651 41.4933 144.917 40.8233 145.451 40.29C145.984 39.75 146.647 39.48 147.441 39.48C147.881 39.48 148.281 39.5633 148.641 39.73C149.007 39.8967 149.317 40.13 149.571 40.43L149.681 39.6ZM146.081 43.73C146.461 44.11 146.937 44.3 147.511 44.3C148.084 44.3 148.557 44.11 148.931 43.73C149.304 43.35 149.491 42.8733 149.491 42.3C149.491 41.7267 149.304 41.25 148.931 40.87C148.557 40.49 148.084 40.3 147.511 40.3C146.937 40.3 146.461 40.4933 146.081 40.88C145.707 41.26 145.521 41.7333 145.521 42.3C145.521 42.8667 145.707 43.3433 146.081 43.73ZM58.86 53.6H63.44V59H62.6V54.38H59.71V59H58.86V53.6ZM67.5888 59.12C67.0555 59.12 66.5688 59 66.1288 58.76C65.6888 58.5133 65.3455 58.1767 65.0988 57.75C64.8522 57.3167 64.7288 56.8333 64.7288 56.3C64.7288 55.4867 64.9988 54.8133 65.5388 54.28C66.0855 53.7467 66.7688 53.48 67.5888 53.48C68.1288 53.48 68.6155 53.6033 69.0488 53.85C69.4888 54.09 69.8322 54.4267 70.0788 54.86C70.3322 55.2867 70.4588 55.7667 70.4588 56.3C70.4588 57.1067 70.1855 57.78 69.6388 58.32C69.0922 58.8533 68.4088 59.12 67.5888 59.12ZM66.1588 57.74C66.5388 58.1133 67.0155 58.3 67.5888 58.3C68.1688 58.3 68.6455 58.1133 69.0188 57.74C69.3988 57.36 69.5888 56.88 69.5888 56.3C69.5888 55.72 69.3988 55.2433 69.0188 54.87C68.6455 54.49 68.1688 54.3 67.5888 54.3C67.0155 54.3 66.5388 54.49 66.1588 54.87C65.7855 55.2433 65.5988 55.72 65.5988 56.3C65.5988 56.88 65.7855 57.36 66.1588 57.74ZM78.4216 59H77.6016L76.8316 54.99L74.9216 58.89H74.7316L72.8316 54.99L72.0616 59H71.2416L72.2716 53.6H72.9816L74.8316 57.38L76.6716 53.6H77.3816L78.4216 59ZM84.6815 56.32C84.6815 56.3933 84.6748 56.4967 84.6615 56.63H80.0515C80.1182 57.13 80.3248 57.5333 80.6715 57.84C81.0182 58.14 81.4448 58.29 81.9515 58.29C82.3248 58.29 82.6548 58.21 82.9415 58.05C83.2348 57.8833 83.4682 57.65 83.6415 57.35H84.5315C84.3048 57.91 83.9648 58.3467 83.5115 58.66C83.0582 58.9667 82.5382 59.12 81.9515 59.12C81.1715 59.12 80.5182 58.85 79.9915 58.31C79.4648 57.77 79.2015 57.1 79.2015 56.3C79.2015 55.4933 79.4648 54.8233 79.9915 54.29C80.5182 53.75 81.1715 53.48 81.9515 53.48C82.7582 53.48 83.4148 53.7533 83.9215 54.3C84.4282 54.8467 84.6815 55.52 84.6815 56.32ZM81.9515 54.29C81.6315 54.29 81.3382 54.3533 81.0715 54.48C80.8115 54.6067 80.5948 54.79 80.4215 55.03C80.2482 55.2633 80.1315 55.5333 80.0715 55.84H83.8215C83.7615 55.5267 83.6448 55.2533 83.4715 55.02C83.2982 54.78 83.0815 54.6 82.8215 54.48C82.5615 54.3533 82.2715 54.29 81.9515 54.29ZM92.6698 58.21H93.4198V60.43H92.6398V59H85.9498V53.6H86.7798V58.21H88.8998V53.6H89.7198V58.21H91.8298V53.6H92.6698V58.21ZM99.6034 56.32C99.6034 56.3933 99.5967 56.4967 99.5834 56.63H94.9734C95.04 57.13 95.2467 57.5333 95.5934 57.84C95.94 58.14 96.3667 58.29 96.8734 58.29C97.2467 58.29 97.5767 58.21 97.8634 58.05C98.1567 57.8833 98.39 57.65 98.5634 57.35H99.4534C99.2267 57.91 98.8867 58.3467 98.4334 58.66C97.98 58.9667 97.46 59.12 96.8734 59.12C96.0934 59.12 95.44 58.85 94.9134 58.31C94.3867 57.77 94.1234 57.1 94.1234 56.3C94.1234 55.4933 94.3867 54.8233 94.9134 54.29C95.44 53.75 96.0934 53.48 96.8734 53.48C97.68 53.48 98.3367 53.7533 98.8434 54.3C99.35 54.8467 99.6034 55.52 99.6034 56.32ZM96.8734 54.29C96.5534 54.29 96.26 54.3533 95.9934 54.48C95.7334 54.6067 95.5167 54.79 95.3434 55.03C95.17 55.2633 95.0534 55.5333 94.9934 55.84H98.7434C98.6834 55.5267 98.5667 55.2533 98.3934 55.02C98.22 54.78 98.0034 54.6 97.7434 54.48C97.4834 54.3533 97.1934 54.29 96.8734 54.29ZM104.592 53.6H105.422V59H104.592V56.61H101.702V59H100.872V53.6H101.702V55.81H104.592V53.6ZM111.111 53.6H111.581V59H110.781V55.14L107.631 59H107.141V53.6H107.951V57.43L111.111 53.6ZM116.843 51.87V52.51H114.223V51.87H116.843ZM117.273 53.6H117.743V59H116.943V55.14L113.793 59H113.303V53.6H114.113V57.43L117.273 53.6ZM125.293 59.11C124.253 59.11 123.393 58.77 122.713 58.09C122.039 57.41 121.703 56.5467 121.703 55.5C121.703 54.4533 122.039 53.59 122.713 52.91C123.393 52.23 124.253 51.89 125.293 51.89C125.826 51.89 126.319 51.9933 126.773 52.2C127.233 52.4 127.619 52.6867 127.933 53.06C128.253 53.4333 128.476 53.87 128.603 54.37H127.713C127.526 53.8633 127.219 53.4667 126.793 53.18C126.366 52.8933 125.866 52.75 125.293 52.75C124.506 52.75 123.859 53.01 123.353 53.53C122.853 54.0433 122.603 54.7033 122.603 55.51C122.603 56.31 122.853 56.9667 123.353 57.48C123.859 57.9933 124.506 58.25 125.293 58.25C125.879 58.25 126.389 58.1 126.823 57.8C127.256 57.4933 127.563 57.07 127.743 56.53H128.643C128.443 57.3233 128.039 57.9533 127.433 58.42C126.833 58.88 126.119 59.11 125.293 59.11ZM129.946 52H135.046V59H134.156V52.82H130.816V59H129.946V52ZM139.508 54.67C140.161 54.67 140.698 54.8733 141.118 55.28C141.538 55.68 141.748 56.1933 141.748 56.82C141.748 57.4533 141.535 57.9767 141.108 58.39C140.681 58.7967 140.141 59 139.488 59H136.958V52H141.238V52.83H137.828V54.67H139.508ZM139.428 58.14C139.841 58.14 140.181 58.0167 140.448 57.77C140.715 57.5233 140.848 57.21 140.848 56.83C140.848 56.4433 140.715 56.13 140.448 55.89C140.188 55.65 139.851 55.53 139.438 55.53H137.828V58.14H139.428Z" fill="#959A9D"/>
<path d="M62.312 30.154C61.5747 30.154 60.926 30.0233 60.366 29.762C59.8153 29.5007 59.386 29.1273 59.078 28.642C58.77 28.1473 58.616 27.5733 58.616 26.92H60.24C60.24 27.4427 60.4313 27.858 60.814 28.166C61.206 28.4647 61.7007 28.614 62.298 28.614C62.8393 28.614 63.2967 28.4833 63.67 28.222C64.0433 27.9513 64.23 27.6013 64.23 27.172C64.23 27.0133 64.202 26.8687 64.146 26.738C64.0993 26.6073 64.0153 26.4953 63.894 26.402C63.782 26.3087 63.67 26.2293 63.558 26.164C63.4553 26.0893 63.2967 26.0193 63.082 25.954C62.8767 25.8887 62.7087 25.842 62.578 25.814C62.4473 25.7767 62.2513 25.7253 61.99 25.66C61.7007 25.5947 61.4813 25.5433 61.332 25.506C61.1827 25.4593 60.9727 25.394 60.702 25.31C60.4407 25.2167 60.2353 25.128 60.086 25.044C59.946 24.96 59.778 24.848 59.582 24.708C59.386 24.5587 59.2367 24.4047 59.134 24.246C59.0407 24.078 58.9567 23.8773 58.882 23.644C58.8073 23.4107 58.77 23.1493 58.77 22.86C58.77 21.9827 59.078 21.2967 59.694 20.802C60.3193 20.3073 61.1547 20.06 62.2 20.06C63.264 20.06 64.0947 20.3307 64.692 20.872C65.2893 21.404 65.588 22.132 65.588 23.056H63.992C63.992 22.5893 63.8193 22.2253 63.474 21.964C63.138 21.6933 62.704 21.558 62.172 21.558C61.6587 21.558 61.2293 21.67 60.884 21.894C60.548 22.1087 60.38 22.412 60.38 22.804C60.38 22.972 60.422 23.126 60.506 23.266C60.59 23.406 60.688 23.5227 60.8 23.616C60.912 23.7 61.08 23.784 61.304 23.868C61.528 23.952 61.7147 24.0173 61.864 24.064C62.0227 24.1013 62.2513 24.1573 62.55 24.232C62.7833 24.288 62.956 24.33 63.068 24.358C63.1893 24.386 63.362 24.4373 63.586 24.512C63.81 24.5773 63.9827 24.638 64.104 24.694C64.2253 24.7407 64.3793 24.8107 64.566 24.904C64.7527 24.9973 64.8973 25.0907 65 25.184C65.1027 25.2773 65.2147 25.394 65.336 25.534C65.4667 25.674 65.5647 25.8233 65.63 25.982C65.6953 26.1313 65.7513 26.3087 65.798 26.514C65.8447 26.71 65.868 26.92 65.868 27.144C65.868 28.096 65.532 28.838 64.86 29.37C64.188 29.8927 63.3387 30.154 62.312 30.154ZM73.9662 29.062C73.2009 29.8087 72.2396 30.182 71.0822 30.182C69.9249 30.182 68.9589 29.8087 68.1842 29.062C67.4189 28.306 67.0362 27.3587 67.0362 26.22C67.0362 25.4733 67.2089 24.7967 67.5542 24.19C67.9089 23.5833 68.3942 23.112 69.0102 22.776C69.6356 22.4307 70.3262 22.258 71.0822 22.258C71.8382 22.258 72.5242 22.4307 73.1402 22.776C73.7656 23.112 74.2509 23.5833 74.5962 24.19C74.9509 24.7967 75.1282 25.4733 75.1282 26.22C75.1282 27.3587 74.7409 28.306 73.9662 29.062ZM71.0822 28.698C71.5582 28.698 71.9829 28.5953 72.3562 28.39C72.7296 28.1753 73.0189 27.8813 73.2242 27.508C73.4389 27.1253 73.5462 26.696 73.5462 26.22C73.5462 25.5013 73.3129 24.9087 72.8462 24.442C72.3889 23.9753 71.8009 23.742 71.0822 23.742C70.3636 23.742 69.7709 23.9753 69.3042 24.442C68.8469 24.9087 68.6182 25.5013 68.6182 26.22C68.6182 26.9387 68.8469 27.5313 69.3042 27.998C69.7709 28.4647 70.3636 28.698 71.0822 28.698ZM85.3827 28.558H86.2647V30H85.1867C84.3187 30 83.6327 29.748 83.1287 29.244C82.634 28.74 82.3867 28.0587 82.3867 27.2V23.798H78.8167V30H77.2627V23.798H75.8487V22.51H77.2627V21.866C77.2627 20.27 78.0654 19.472 79.6707 19.472H80.9307V20.718H79.9787C79.5494 20.718 79.2367 20.8113 79.0407 20.998C78.854 21.1847 78.7607 21.488 78.7607 21.908V22.51H82.3867V20.284H83.9267V22.51H86.2507V23.798H83.9267V27.116C83.9267 27.5827 84.0527 27.942 84.3047 28.194C84.5567 28.4367 84.916 28.558 85.3827 28.558ZM95.8669 30.168C94.4203 30.168 93.2163 29.692 92.2549 28.74C91.3029 27.7787 90.8269 26.5653 90.8269 25.1C90.8269 23.6347 91.3029 22.426 92.2549 21.474C93.2163 20.5127 94.4203 20.032 95.8669 20.032C96.6323 20.032 97.3416 20.1813 97.9949 20.48C98.6483 20.7787 99.1943 21.2033 99.6329 21.754C100.081 22.3047 100.389 22.944 100.557 23.672H98.9329C98.6996 23.0187 98.3123 22.51 97.7709 22.146C97.2296 21.7727 96.5949 21.586 95.8669 21.586C94.8869 21.586 94.0749 21.9173 93.4309 22.58C92.7869 23.2427 92.4649 24.0873 92.4649 25.114C92.4649 26.1313 92.7869 26.9713 93.4309 27.634C94.0749 28.2873 94.8869 28.614 95.8669 28.614C96.6136 28.614 97.2623 28.418 97.8129 28.026C98.3636 27.6247 98.7463 27.0787 98.9609 26.388H100.599C100.347 27.536 99.7916 28.4553 98.9329 29.146C98.0743 29.8273 97.0523 30.168 95.8669 30.168ZM102.159 30V19.724H103.713V30H102.159ZM113.101 26.234C113.101 26.374 113.091 26.5467 113.073 26.752H106.941C107.034 27.3587 107.286 27.8393 107.697 28.194C108.117 28.5487 108.635 28.726 109.251 28.726C109.549 28.726 109.829 28.684 110.091 28.6C110.352 28.5067 110.581 28.3807 110.777 28.222C110.982 28.054 111.15 27.8533 111.281 27.62H112.919C112.62 28.4227 112.144 29.0527 111.491 29.51C110.837 29.958 110.091 30.182 109.251 30.182C108.14 30.182 107.211 29.804 106.465 29.048C105.727 28.292 105.359 27.3493 105.359 26.22C105.359 25.0907 105.727 24.148 106.465 23.392C107.211 22.636 108.14 22.258 109.251 22.258C110.007 22.258 110.679 22.44 111.267 22.804C111.855 23.1587 112.307 23.6393 112.625 24.246C112.942 24.8433 113.101 25.506 113.101 26.234ZM109.251 23.658C108.672 23.658 108.177 23.8213 107.767 24.148C107.365 24.4747 107.099 24.9227 106.969 25.492H111.547C111.453 25.1093 111.299 24.7827 111.085 24.512C110.87 24.232 110.604 24.022 110.287 23.882C109.979 23.7327 109.633 23.658 109.251 23.658ZM121.079 22.44H122.283V30H121.023L120.869 29.076C120.141 29.8133 119.231 30.182 118.139 30.182C117.009 30.182 116.067 29.804 115.311 29.048C114.564 28.292 114.191 27.3493 114.191 26.22C114.191 25.0813 114.564 24.1387 115.311 23.392C116.067 22.636 117.009 22.258 118.139 22.258C119.249 22.258 120.169 22.6313 120.897 23.378L121.079 22.44ZM116.473 27.998C116.949 28.4647 117.541 28.698 118.251 28.698C118.969 28.698 119.557 28.4647 120.015 27.998C120.481 27.522 120.715 26.9293 120.715 26.22C120.715 25.5013 120.481 24.9087 120.015 24.442C119.557 23.9753 118.969 23.742 118.251 23.742C117.784 23.742 117.359 23.8493 116.977 24.064C116.603 24.2787 116.309 24.5773 116.095 24.96C115.88 25.3333 115.773 25.7533 115.773 26.22C115.773 26.9293 116.006 27.522 116.473 27.998ZM128.503 22.272C129.38 22.272 130.075 22.566 130.589 23.154C131.111 23.742 131.373 24.5073 131.373 25.45V30H129.819V25.758C129.819 25.0767 129.669 24.5587 129.371 24.204C129.081 23.84 128.652 23.658 128.083 23.658C127.495 23.658 127.009 23.8727 126.627 24.302C126.244 24.7313 126.053 25.282 126.053 25.954V30H124.499V22.44H125.577L125.885 23.49C126.174 23.1073 126.543 22.8087 126.991 22.594C127.448 22.3793 127.952 22.272 128.503 22.272Z" fill="#43AAFF"/>
<path d="M10.5683 35.5256C6.07186 28.1396 11.9436 21.1485 16.6597 15.5308C18.293 13.5812 19.8447 11.74 20.6662 10.2128C21.3195 8.99281 21.6421 7.87146 21.616 6.78955C19.1979 10.0216 15.2004 12.4867 11.1318 14.9255C6.74069 17.5577 2.29159 20.4671 0.648487 24.2606C-0.595271 27.1344 -0.0309658 30.3412 2.17807 32.94C4.29646 35.4341 7.99752 36.8441 12.1094 37.6143C11.5216 36.9438 11.0066 36.2457 10.5683 35.5256Z" fill="#FFC24D"/>
<path d="M23.366 0.740234C26.5338 4.16399 27.0066 7.46505 24.965 11.2547C21.5955 17.509 9.69367 25.9846 14.7985 34.3681C17.2256 38.3545 21.4208 40.2471 25.9115 40.8125C19.7507 37.5361 18.8965 32.9241 21.3383 29.3535C24.2709 25.0714 31.6999 22.0229 35.165 17.4767C39.8354 22.202 45.7749 33.8011 36.8677 39.9113C39.2744 39.2353 41.3282 38.2975 42.7312 37.2885C55.6237 28.0207 43.1926 8.05941 23.366 0.740234Z" fill="#43AAFF"/>
<path d="M35 24.4395C35.6362 27.0048 37.7603 38.3958 25.1904 42.6095C32.0666 37.779 34.1744 29.6994 35 24.4395Z" fill="#43AAFF"/>
</svg>
