<svg width="28" height="20" viewBox="0 0 28 20" fill="none" xmlns="http://www.w3.org/2000/svg">
<path d="M13.2079 0.572926C5.81314 0.810252 -0.0223685 4.96124 6.44603e-05 9.95123C0.00689479 11.4711 0.551245 12.9056 1.51151 14.1731L0.0371625 18.9969C-0.0425916 19.2578 0.306559 19.4863 0.691133 19.4249L7.7038 18.3051C9.50547 18.91 11.5291 19.2594 13.6708 19.2814C21.229 19.3592 27.5312 15.3141 27.7668 10.2215C28.0193 4.7626 21.3351 0.312039 13.2079 0.572926ZM21.5755 15.1047C19.5218 16.489 16.7912 17.2514 13.8869 17.2514C12.1862 17.2514 10.5581 16.9942 9.04744 16.487L8.07083 16.1591L3.77134 16.8457L4.67636 13.8844L4.19523 13.2494C3.41101 12.2142 3.01338 11.0948 3.01338 9.92225C3.01338 7.96456 4.1444 6.12409 6.19812 4.73976C8.23349 3.36785 11.0086 2.59308 13.8871 2.59308C16.7914 2.59313 19.5219 3.35548 21.5756 4.73971C23.6293 6.124 24.7603 7.96447 24.7604 9.92211C24.7603 11.8623 23.6109 13.7329 21.5755 15.1047Z" fill="#7AD06D"/>
<path d="M20.6264 11.9524L17.9365 11.4318C17.5829 11.3634 17.2021 11.431 16.9444 11.608L16.2866 12.0597C16.0092 12.2502 15.5884 12.3114 15.2213 12.2113C13.9488 11.8642 11.2721 10.26 10.5885 9.45764C10.3913 9.22618 10.424 8.93681 10.6661 8.72562L11.2404 8.22483C11.4654 8.02863 11.5129 7.76512 11.3641 7.53831L10.2324 5.81307C9.9613 5.39985 9.17788 5.27956 8.66608 5.57132C7.91534 5.99931 7.02459 6.64967 6.91631 7.37018C6.72539 8.64049 7.53365 10.2418 10.5901 12.1646C14.1211 14.386 16.9487 14.6795 18.7898 14.3789C19.834 14.2084 20.6685 13.5249 21.1952 12.9654C21.5542 12.5838 21.2707 12.0771 20.6264 11.9524Z" fill="#7AD06D"/>
</svg>
